<svg width="287" height="49" viewBox="0 0 287 49" fill="none" xmlns="http://www.w3.org/2000/svg">
<path d="M53.6875 14.1875C53.625 14.4792 53.4896 14.7083 53.2812 14.875C53.0729 15.0417 52.8438 15.125 52.5938 15.125C52.2188 15.125 51.9167 15.0104 51.6875 14.7812C51.4583 14.5312 51.3438 14.25 51.3438 13.9375C51.3438 13.625 51.375 13.3229 51.4375 13.0312C51.5 12.7188 51.5312 12.4167 51.5312 12.125C51.5312 10.6042 51.0625 9.23958 50.125 8.03125C49.1875 6.82292 47.8542 5.8125 46.125 5C44.4167 4.16667 42.3333 3.53125 39.875 3.09375C37.4167 2.65625 34.6771 2.4375 31.6562 2.4375C29.3438 2.4375 27.0104 2.59375 24.6562 2.90625C22.3229 3.19792 20.0729 3.63542 17.9062 4.21875C15.7604 4.78125 13.75 5.5 11.875 6.375C10 7.22917 8.36458 8.22917 6.96875 9.375C5.59375 10.5 4.51042 11.7604 3.71875 13.1562C2.92708 14.5312 2.53125 16.0417 2.53125 17.6875C2.53125 18.9583 2.80208 20.0833 3.34375 21.0625C3.90625 22.0208 4.66667 22.8646 5.625 23.5938C6.58333 24.3021 7.70833 24.9167 9 25.4375C10.3125 25.9375 11.7292 26.3646 13.25 26.7188C14.7708 27.0521 16.3542 27.3333 18 27.5625C19.6458 27.7708 21.3021 27.9479 22.9688 28.0938L27.7812 28.5C30.1771 28.7083 32.3229 28.9271 34.2188 29.1562C36.1146 29.3854 37.7812 29.6771 39.2188 30.0312C41.6146 30.6354 43.3854 31.5 44.5312 32.625C45.6771 33.75 46.25 35.25 46.25 37.125C46.25 38.9375 45.75 40.5312 44.75 41.9062C43.75 43.2812 42.3854 44.4375 40.6562 45.375C38.9271 46.3125 36.9062 47.0208 34.5938 47.5C32.2812 47.9792 29.8021 48.2188 27.1562 48.2188C24.2812 48.2188 21.75 48.0208 19.5625 47.625C17.3958 47.25 15.5729 46.8333 14.0938 46.375C12.6354 45.8958 11.5208 45.4583 10.75 45.0625C9.97917 44.6667 9.5625 44.4479 9.5 44.4062C9.125 44.1979 8.9375 43.8646 8.9375 43.4062C8.9375 43.0521 9.0625 42.7708 9.3125 42.5625C9.5625 42.3333 9.83333 42.2188 10.125 42.2188C10.3542 42.2188 10.5625 42.2812 10.75 42.4062C10.7708 42.4062 11.125 42.5938 11.8125 42.9688C12.5208 43.3229 13.5625 43.7188 14.9375 44.1562C16.3333 44.5938 18.0521 44.9896 20.0938 45.3438C22.1354 45.6979 24.5104 45.875 27.2188 45.875C29.9062 45.875 32.2812 45.6562 34.3438 45.2188C36.4062 44.7812 38.1354 44.1771 39.5312 43.4062C40.9479 42.6146 42.0104 41.6979 42.7188 40.6562C43.4479 39.5938 43.8125 38.4479 43.8125 37.2188C43.8125 36.4896 43.6771 35.8646 43.4062 35.3438C43.1562 34.8021 42.8021 34.3438 42.3438 33.9688C41.8854 33.5729 41.3333 33.2396 40.6875 32.9688C40.0625 32.6979 39.375 32.4688 38.625 32.2812C37.8333 32.0729 36.9792 31.8958 36.0625 31.75C35.1667 31.6042 34.2396 31.4792 33.2812 31.375C32.3229 31.2708 31.3542 31.1771 30.375 31.0938C29.4167 31.0104 28.4688 30.9271 27.5312 30.8438L22.7188 30.4375C18.9271 30.125 15.6146 29.6458 12.7812 29C9.96875 28.3333 7.625 27.4896 5.75 26.4688C3.875 25.4271 2.46875 24.1875 1.53125 22.75C0.59375 21.3125 0.125 19.6354 0.125 17.7188C0.125 15.7604 0.5625 13.9688 1.4375 12.3438C2.33333 10.6979 3.54167 9.21875 5.0625 7.90625C6.60417 6.59375 8.39583 5.45833 10.4375 4.5C12.5 3.52083 14.6979 2.70833 17.0312 2.0625C19.3646 1.41667 21.7812 0.9375 24.2812 0.625C26.7812 0.291667 29.2396 0.125 31.6562 0.125C34.6771 0.125 37.3021 0.3125 39.5312 0.6875C41.7812 1.04167 43.6979 1.51042 45.2812 2.09375C46.8854 2.65625 48.1979 3.30208 49.2188 4.03125C50.2396 4.76042 51.0625 5.47917 51.6875 6.1875C53.1667 7.91667 53.9062 9.88542 53.9062 12.0938C53.9062 12.8229 53.8333 13.5208 53.6875 14.1875ZM80.75 15.7188C80.75 16.0521 80.6354 16.3229 80.4062 16.5312C80.1771 16.7188 79.8958 16.8125 79.5625 16.8125H63.7188V17.1562C63.7188 18.4271 63.625 19.7812 63.4375 21.2188C63.25 22.6562 62.9896 24.0938 62.6562 25.5312C62.3438 26.9479 61.9792 28.3333 61.5625 29.6875C61.1667 31.0417 60.75 32.2917 60.3125 33.4375C59.8958 34.5833 59.4792 35.5833 59.0625 36.4375C58.6458 37.2708 58.2708 37.8958 57.9375 38.3125C58.2083 39.2708 58.5312 40.1667 58.9062 41C59.2812 41.8125 59.6979 42.5312 60.1562 43.1562C60.6354 43.7604 61.1458 44.2396 61.6875 44.5938C62.2292 44.9479 62.8125 45.125 63.4375 45.125C64.1667 45.125 64.8854 44.8229 65.5938 44.2188C66.3229 43.5938 66.9896 42.8646 67.5938 42.0312C68.2188 41.1771 68.7604 40.3229 69.2188 39.4688C69.6979 38.5938 70.0417 37.8958 70.25 37.375C70.4583 36.875 70.8229 36.625 71.3438 36.625C71.6979 36.625 71.9792 36.75 72.1875 37C72.4167 37.25 72.5312 37.5208 72.5312 37.8125C72.5312 37.9583 72.5 38.1042 72.4375 38.25C72.375 38.3958 72.2188 38.7292 71.9688 39.25C71.7396 39.7708 71.4271 40.375 71.0312 41.0625C70.6562 41.75 70.2083 42.4792 69.6875 43.25C69.1875 44 68.6146 44.6875 67.9688 45.3125C67.3438 45.9375 66.6667 46.4583 65.9375 46.875C65.2083 47.2917 64.4375 47.5 63.625 47.5C62.1875 47.5 60.8958 47.0312 59.75 46.0938C58.6042 45.1562 57.625 43.8438 56.8125 42.1562C56.0208 40.4688 55.4167 38.4688 55 36.1562C54.5833 33.8438 54.375 31.3125 54.375 28.5625C54.375 27.875 54.3854 27.0729 54.4062 26.1562C54.4271 25.2188 54.4688 24.2396 54.5312 23.2188C54.5938 22.1771 54.6875 21.1146 54.8125 20.0312C54.9375 18.9271 55.1042 17.8542 55.3125 16.8125H44.0938C43.7604 16.8125 43.4792 16.7188 43.25 16.5312C43.0208 16.3229 42.9062 16.0521 42.9062 15.7188C42.9062 15.3854 43.0208 15.125 43.25 14.9375C43.4792 14.7292 43.7604 14.625 44.0938 14.625H55.8438C56.0521 13.875 56.2917 13.1875 56.5625 12.5625C56.8542 11.9375 57.1771 11.3958 57.5312 10.9375C57.9062 10.4792 58.3125 10.125 58.75 9.875C59.2083 9.60417 59.7083 9.46875 60.25 9.46875C60.7708 9.46875 61.2188 9.60417 61.5938 9.875C61.9896 10.125 62.3229 10.4792 62.5938 10.9375C62.8646 11.3958 63.0729 11.9375 63.2188 12.5625C63.3854 13.1875 63.5104 13.875 63.5938 14.625H79.5625C79.8958 14.625 80.1771 14.7292 80.4062 14.9375C80.6354 15.125 80.75 15.3854 80.75 15.7188ZM57.2188 35.1875C57.8438 33.8125 58.4062 32.3333 58.9062 30.75C59.4271 29.1458 59.8646 27.5312 60.2188 25.9062C60.5938 24.2812 60.875 22.6875 61.0625 21.125C61.2708 19.5625 61.375 18.125 61.375 16.8125H57.6875C57.3958 18.1042 57.1562 19.7083 56.9688 21.625C56.8021 23.5208 56.7188 25.8333 56.7188 28.5625C56.7188 30.0833 56.7604 31.3646 56.8438 32.4062C56.9271 33.4271 57.0521 34.3542 57.2188 35.1875ZM60.125 11.8125C59.9375 11.8125 59.6667 12.0208 59.3125 12.4375C58.9583 12.8333 58.6042 13.5625 58.25 14.625H61.25C61.1458 13.75 60.9896 13.0625 60.7812 12.5625C60.5938 12.0625 60.375 11.8125 60.125 11.8125ZM57.7188 37.4375V37.4688V37.4375ZM94.5312 38.2812C94.4479 38.4479 94.2708 38.8021 94 39.3438C93.75 39.8646 93.4167 40.4688 93 41.1562C92.6042 41.8438 92.1354 42.5625 91.5938 43.3125C91.0521 44.0625 90.4479 44.75 89.7812 45.375C89.1146 46 88.3958 46.5208 87.625 46.9375C86.8542 47.3333 86.0417 47.5312 85.1875 47.5312C83.9792 47.5312 82.9583 47.1458 82.125 46.375C81.3125 45.6042 80.7188 44.6354 80.3438 43.4688C79.6354 44.6562 78.7917 45.6042 77.8125 46.3125C76.8333 47 75.8542 47.3438 74.875 47.3438C74.1042 47.3438 73.4062 47.2083 72.7812 46.9375C72.1562 46.6458 71.625 46.25 71.1875 45.75C70.75 45.2292 70.4062 44.625 70.1562 43.9375C69.9271 43.25 69.8125 42.5 69.8125 41.6875C69.8125 40.0625 70.0833 38.6354 70.625 37.4062C71.1875 36.1562 71.8958 35.1146 72.75 34.2812C73.6042 33.4479 74.5417 32.8229 75.5625 32.4062C76.6042 31.9896 77.6042 31.7812 78.5625 31.7812C79.2083 31.7812 79.8021 31.875 80.3438 32.0625C80.8854 32.2292 81.3438 32.4167 81.7188 32.625C82.1146 32.8333 82.4167 33.0312 82.625 33.2188C82.8333 33.3854 82.9479 33.4792 82.9688 33.5C83.1979 33.7708 83.3125 34.0521 83.3125 34.3438C83.3125 34.6562 83.1979 34.9375 82.9688 35.1875C82.7396 35.4167 82.4688 35.5312 82.1562 35.5312C81.8229 35.5312 81.5417 35.4167 81.3125 35.1875C81.2708 35.1458 81.1771 35.0729 81.0312 34.9688C80.8854 34.8438 80.6875 34.7188 80.4375 34.5938C80.1875 34.4688 79.8854 34.3646 79.5312 34.2812C79.1979 34.1771 78.8125 34.125 78.375 34.125C77.7292 34.125 77.0417 34.2708 76.3125 34.5625C75.5833 34.8542 74.9167 35.3125 74.3125 35.9375C73.7083 36.5417 73.1979 37.3125 72.7812 38.25C72.3854 39.1667 72.1875 40.2604 72.1875 41.5312C72.1875 41.9271 72.2292 42.3333 72.3125 42.75C72.3958 43.1458 72.5417 43.5104 72.75 43.8438C72.9583 44.1771 73.2396 44.4479 73.5938 44.6562C73.9479 44.8646 74.3854 44.9688 74.9062 44.9688C75.2812 44.9688 75.7083 44.8438 76.1875 44.5938C76.6875 44.3438 77.1562 43.9583 77.5938 43.4375C78.0521 42.9167 78.4583 42.2604 78.8125 41.4688C79.1875 40.6771 79.4479 39.7396 79.5938 38.6562C79.6354 38.3646 79.7708 38.125 80 37.9375C80.2292 37.7292 80.5 37.625 80.8125 37.625C81.1042 37.625 81.3542 37.7396 81.5625 37.9688C81.7917 38.1979 81.9167 38.4583 81.9375 38.75C81.9583 39.1458 82 39.7083 82.0625 40.4375C82.125 41.1458 82.2604 41.8542 82.4688 42.5625C82.6979 43.2708 83.0312 43.8854 83.4688 44.4062C83.9062 44.9271 84.5104 45.1875 85.2812 45.1875C85.7812 45.1875 86.2708 45.0521 86.75 44.7812C87.25 44.5104 87.7292 44.1562 88.1875 43.7188C88.6667 43.2604 89.1146 42.75 89.5312 42.1875C89.9688 41.6042 90.3646 41.0208 90.7188 40.4375C91.0729 39.8542 91.3854 39.2917 91.6562 38.75C91.9271 38.2083 92.1562 37.7396 92.3438 37.3438C92.4479 37.1146 92.5938 36.9375 92.7812 36.8125C92.9896 36.6875 93.2083 36.625 93.4375 36.625C93.7917 36.625 94.0729 36.7604 94.2812 37.0312C94.5104 37.2812 94.625 37.5521 94.625 37.8438C94.625 37.9896 94.5938 38.1354 94.5312 38.2812ZM95.6562 34.1562C95.5729 34.7188 95.4688 35.25 95.3438 35.75C95.2188 36.2292 95.0938 36.6562 94.9688 37.0312C94.8646 37.3854 94.7708 37.6771 94.6875 37.9062C94.6042 38.1354 94.5521 38.2604 94.5312 38.2812C94.3229 38.7604 93.9583 39 93.4375 39C93.1458 39 92.875 38.8958 92.625 38.6875C92.375 38.4583 92.25 38.1771 92.25 37.8438C92.25 37.7188 92.2708 37.625 92.3125 37.5625C92.3542 37.5 92.4167 37.375 92.5 37.1875C92.5833 37 92.6875 36.6875 92.8125 36.25C92.9375 35.8125 93.0938 35.1354 93.2812 34.2188C92.9271 34.2188 92.5625 34.2083 92.1875 34.1875C91.8125 34.1667 91.4688 34.0938 91.1562 33.9688C90.8229 33.8438 90.5521 33.6458 90.3438 33.375C90.1354 33.1042 90.0312 32.7292 90.0312 32.25C90.0312 31.8958 90.1354 31.4167 90.3438 30.8125C90.5312 30.2083 90.7917 29.6146 91.125 29.0312C91.4583 28.4479 91.8333 27.9479 92.25 27.5312C92.6667 27.0938 93.0833 26.875 93.5 26.875C93.9792 26.875 94.3646 27.0521 94.6562 27.4062C94.9688 27.7604 95.2083 28.1979 95.375 28.7188C95.5417 29.2188 95.6562 29.75 95.7188 30.3125C95.8021 30.875 95.8438 31.3646 95.8438 31.7812C96.1979 31.7812 96.5417 31.7812 96.875 31.7812C97.2292 31.7604 97.5625 31.75 97.875 31.75C99.0625 31.75 99.9688 32.0104 100.594 32.5312C101.219 33.0521 101.531 33.9062 101.531 35.0938C101.531 35.5729 101.5 36.0729 101.438 36.5938C101.375 37.1146 101.302 37.6562 101.219 38.2188C101.135 38.7604 101.062 39.3021 101 39.8438C100.938 40.3854 100.906 40.9167 100.906 41.4375C100.906 42.1875 101.01 42.8125 101.219 43.3125C101.427 43.7917 101.688 44.1771 102 44.4688C102.312 44.7604 102.646 44.9688 103 45.0938C103.354 45.1979 103.677 45.25 103.969 45.25C104.865 45.25 105.708 44.9583 106.5 44.375C107.292 43.7917 108.021 43.0938 108.688 42.2812C109.354 41.4479 109.948 40.5729 110.469 39.6562C111.01 38.7396 111.458 37.9375 111.812 37.25C111.917 37.0625 112.062 36.9167 112.25 36.8125C112.438 36.7083 112.635 36.6562 112.844 36.6562C113.219 36.6562 113.51 36.7812 113.719 37.0312C113.927 37.2604 114.031 37.5208 114.031 37.8125C114.031 38.0208 113.99 38.2083 113.906 38.375C113.427 39.2292 112.865 40.1979 112.219 41.2812C111.594 42.3438 110.875 43.3438 110.062 44.2812C109.25 45.2188 108.333 46.0104 107.312 46.6562C106.312 47.3021 105.208 47.625 104 47.625C103.25 47.625 102.542 47.4792 101.875 47.1875C101.208 46.9167 100.625 46.5208 100.125 46C99.6458 45.4583 99.2604 44.8021 98.9688 44.0312C98.6771 43.2396 98.5312 42.3542 98.5312 41.375C98.5312 40.3333 98.6354 39.3021 98.8438 38.2812C99.0521 37.2396 99.1562 36.25 99.1562 35.3125C99.1562 34.9167 99.0625 34.625 98.875 34.4375C98.7083 34.2292 98.3229 34.125 97.7188 34.125C97.4271 34.125 97.1042 34.125 96.75 34.125C96.4167 34.125 96.0521 34.1354 95.6562 34.1562ZM93.5625 31.8438C93.5625 31.6979 93.5521 31.5104 93.5312 31.2812C93.5312 31.0312 93.5104 30.7917 93.4688 30.5625C93.4479 30.3333 93.4062 30.1354 93.3438 29.9688C93.3021 29.8021 93.25 29.7188 93.1875 29.7188C93.125 29.7188 93.0417 29.8021 92.9375 29.9688C92.8542 30.1146 92.7604 30.3021 92.6562 30.5312C92.5521 30.7396 92.4583 30.9688 92.375 31.2188C92.2917 31.4688 92.2292 31.6771 92.1875 31.8438H93.5625ZM113.633 47V40.472H117.345V16.6H113.633V10.008H135.585C138.87 10.008 141.729 10.4987 144.161 11.48C146.593 12.4187 148.62 13.72 150.241 15.384C151.905 17.048 153.142 18.9893 153.953 21.208C154.764 23.4267 155.169 25.816 155.169 28.376C155.169 31.1493 154.742 33.688 153.889 35.992C153.078 38.2533 151.862 40.216 150.241 41.88C148.662 43.5013 146.636 44.76 144.161 45.656C141.729 46.552 138.892 47 135.649 47H113.633ZM128.161 40.472H133.665C135.5 40.472 137.057 40.1947 138.337 39.64C139.617 39.0853 140.662 38.296 141.473 37.272C142.326 36.2053 142.945 34.9253 143.329 33.432C143.713 31.9387 143.905 30.2533 143.905 28.376C143.905 26.584 143.713 24.9627 143.329 23.512C142.945 22.0613 142.348 20.824 141.537 19.8C140.726 18.776 139.66 17.9867 138.337 17.432C137.057 16.8773 135.521 16.6 133.729 16.6H128.161V40.472ZM158.908 47V40.472H162.684L171.708 16.6H168.124V10.008H193.596V16.6H189.948L199.1 40.472H202.812V47H183.996V40.472H188.092L185.98 33.944H174.524L172.412 40.472H175.996V47H158.908ZM176.444 27.8H184.124L180.604 16.6H180.22L176.444 27.8ZM226.714 47.64C224.922 47.64 223.109 47.3627 221.274 46.808C219.439 46.2533 217.818 45.4427 216.41 44.376C215.002 43.3093 214.063 42.0293 213.594 40.536H215.002V47H207.834V34.392H214.234C214.831 35.8 215.642 37.0373 216.666 38.104C217.69 39.1707 218.885 40.0027 220.25 40.6C221.615 41.1973 223.13 41.496 224.794 41.496C226.202 41.496 227.311 41.1973 228.122 40.6C228.975 39.96 229.402 39.0213 229.402 37.784C229.402 36.888 229.21 36.1627 228.826 35.608C228.442 35.0107 227.802 34.5413 226.906 34.2C226.053 33.816 224.922 33.4747 223.514 33.176L219.29 32.344C215.322 31.4907 212.357 30.104 210.394 28.184C208.474 26.264 207.514 23.6613 207.514 20.376C207.514 18.2 208.026 16.28 209.05 14.616C210.074 12.952 211.503 11.672 213.338 10.776C215.215 9.83733 217.391 9.368 219.866 9.368C222.767 9.368 225.263 9.88 227.354 10.904C229.445 11.928 231.13 13.4 232.41 15.32H230.938V10.008H237.658V20.824H231.514C231.087 19.9707 230.469 19.1387 229.658 18.328C228.89 17.5173 227.93 16.856 226.778 16.344C225.626 15.7893 224.239 15.512 222.618 15.512C221.253 15.512 220.186 15.8107 219.418 16.408C218.65 16.9627 218.266 17.7733 218.266 18.84C218.266 20.0347 218.799 20.9733 219.866 21.656C220.933 22.3387 222.661 22.9147 225.05 23.384L227.29 23.832C230.106 24.344 232.41 25.112 234.202 26.136C235.994 27.1173 237.317 28.4187 238.17 30.04C239.066 31.6187 239.514 33.5813 239.514 35.928C239.514 38.36 238.981 40.4507 237.914 42.2C236.847 43.9067 235.354 45.2507 233.434 46.232C231.557 47.1707 229.317 47.64 226.714 47.64ZM245.071 47V40.472H248.719V16.6H245.071V10.008H263.247V16.6H259.599V25.112H272.463V16.6H268.751V10.008H286.927V16.6H283.215V40.472H286.927V47H268.751V40.472H272.463V31.256H259.599V40.472H263.247V47H245.071Z" fill="#EDF2F4"/>
</svg>
